<svg xmlns="http://www.w3.org/2000/svg" width="499.549" height="450.833" viewBox="0 0 499.549 450.833">
  <g id="Component_1_1" data-name="Component 1 – 1" transform="translate(3.302 3.921)">
    <path id="Path_2" data-name="Path 2" d="M306.617,440.559c4.983-3.061,67.29-86.127,67.29-86.127L440.622,438.3l-27.013.211-2.825,114.86-53.97-42.166-20.9-74.976Z" transform="matrix(-0.829, 0.559, -0.559, -0.829, 861.92, 287.311)" fill="#01cda9" stroke="#707070" stroke-width="4"/>
    <path id="Path_3" data-name="Path 3" d="M275.261,532.082h72.731l22.644-78.114-35.242-48.136s-2.526-3.407-5.513-4.543a21.618,21.618,0,0,0-6.708-1.111s-3.283,1.164-6.6,2.3a28.306,28.306,0,0,0-6.385,3.354Z" transform="matrix(0.998, 0.07, -0.07, 0.998, -91.994, -363.553)" fill="azure" stroke="#707070" stroke-width="4"/>
    <path id="Path_4" data-name="Path 4" d="M306.617,440.559c4.983-3.061,67.29-86.127,67.29-86.127L440.622,438.3l-27.013.211-2.825,114.86-53.97-42.166-20.9-74.976Z" transform="translate(-103.036 721.305) rotate(-89)" fill="#01cda9" stroke="#707070" stroke-width="4"/>
    <path id="Path_5" data-name="Path 5" d="M275.261,532.082h72.731l22.644-78.114-35.242-48.136s-2.526-3.407-5.513-4.543a21.618,21.618,0,0,0-6.708-1.111s-3.283,1.164-6.6,2.3a28.306,28.306,0,0,0-6.385,3.354Z" transform="translate(977.262 313.225) rotate(129)" fill="azure" stroke="#707070" stroke-width="4"/>
    <path id="Path_6" data-name="Path 6" d="M306.617,440.559c4.983-3.061,67.29-86.127,67.29-86.127L440.622,438.3l-27.013.211-2.825,114.86-53.97-42.166-20.9-74.976Z" transform="matrix(0.788, 0.616, -0.616, 0.788, 99.074, -300.58)" fill="#01cda9" stroke="#707070" stroke-width="4"/>
    <path id="Path_7" data-name="Path 7" d="M275.261,532.082h72.731l22.644-78.114-35.242-48.136s-2.526-3.407-5.513-4.543a21.618,21.618,0,0,0-6.708-1.111s-3.283,1.164-6.6,2.3a28.306,28.306,0,0,0-6.385,3.354Z" transform="translate(-225.158 807.773) rotate(-104)" fill="azure" stroke="#707070" stroke-width="4"/>
    <text id="RE-DENIM" transform="translate(199.288 264.675)" fill="#707070" font-size="27" font-family="HelveticaNeue, Helvetica Neue"><tspan x="0" y="0">RE-DENIM</tspan></text>
  </g>
</svg>
